<svg width="24" height="24" viewBox="0 0 24 24" fill="none" xmlns="http://www.w3.org/2000/svg">
<path d="M12 0C5.31429 0 0 5.31429 0 12C0 18.6857 5.31429 24 12 24C18.6857 24 24 18.6857 24 12C24 5.31429 18.6857 0 12 0ZM12 22.2857C6.34286 22.2857 1.71429 17.6571 1.71429 12C1.71429 6.34286 6.34286 1.71429 12 1.71429C17.6571 1.71429 22.2857 6.34286 22.2857 12C22.2857 17.6571 17.6571 22.2857 12 22.2857Z" fill="#66938D"/>
<path d="M15.0857 16L12 12.9143L8.91429 16L8 15.0857L11.0857 12L8 8.91429L8.91429 8L12 11.0857L15.0857 8L16 8.91429L12.9143 12L16 15.0857L15.0857 16Z" fill="#66938D"/>
</svg>
