<svg width="187" height="29" fill="none" xmlns="http://www.w3.org/2000/svg"><path d="M59.01 22.6V25H44.55V3.7h14.19v2.4H47.25V13h9.99v2.25h-9.99v7.35h11.76zM75.224 8.17c-.5-.56-1.27-1.07-2.31-1.53-1.04-.46-2.2-.69-3.48-.69-1.64 0-2.85.31-3.63.93-.78.62-1.17 1.47-1.17 2.55 0 .76.2 1.36.6 1.8.4.44 1.01.8 1.83 1.08.84.28 1.9.57 3.18.87 1.48.32 2.76.71 3.84 1.17 1.08.46 1.91 1.08 2.49 1.86.58.76.87 1.78.87 3.06 0 1.36-.34 2.48-1.02 3.36-.68.88-1.61 1.53-2.79 1.95-1.16.42-2.47.63-3.93.63-3.32 0-6.21-1-8.67-3l1.29-2.28c.44.44 1.03.88 1.77 1.32.76.44 1.62.81 2.58 1.11.98.28 2.01.42 3.09.42 1.52 0 2.7-.27 3.54-.81.84-.56 1.26-1.37 1.26-2.43 0-.8-.24-1.44-.72-1.92-.46-.48-1.15-.88-2.07-1.2-.92-.32-2.04-.64-3.36-.96-1.44-.36-2.65-.75-3.63-1.17-.98-.44-1.72-1.01-2.22-1.71-.48-.7-.72-1.61-.72-2.73 0-1.36.33-2.51.99-3.45.66-.94 1.57-1.65 2.73-2.13s2.47-.72 3.93-.72c1.42 0 2.71.22 3.87.66 1.18.44 2.22 1.03 3.12 1.77l-1.26 2.19zm18.281 0c-.5-.56-1.27-1.07-2.31-1.53-1.04-.46-2.2-.69-3.48-.69-1.64 0-2.85.31-3.63.93-.78.62-1.17 1.47-1.17 2.55 0 .76.2 1.36.6 1.8.4.44 1.01.8 1.83 1.08.84.28 1.9.57 3.18.87 1.48.32 2.76.71 3.84 1.17 1.08.46 1.91 1.08 2.49 1.86.58.76.87 1.78.87 3.06 0 1.36-.34 2.48-1.02 3.36-.68.88-1.61 1.53-2.79 1.95-1.16.42-2.47.63-3.93.63-3.32 0-6.21-1-8.67-3l1.29-2.28c.44.44 1.03.88 1.77 1.32.76.44 1.62.81 2.58 1.11.98.28 2.01.42 3.09.42 1.52 0 2.7-.27 3.54-.81.84-.56 1.26-1.37 1.26-2.43 0-.8-.24-1.44-.72-1.92-.46-.48-1.15-.88-2.07-1.2-.92-.32-2.04-.64-3.36-.96-1.44-.36-2.65-.75-3.63-1.17-.98-.44-1.72-1.01-2.22-1.71-.48-.7-.72-1.61-.72-2.73 0-1.36.33-2.51.99-3.45.66-.94 1.57-1.65 2.73-2.13s2.47-.72 3.93-.72c1.42 0 2.71.22 3.87.66 1.18.44 2.22 1.03 3.12 1.77l-1.26 2.19zm11.841-4.47h2.28l8.7 21.3h-2.88l-2.52-6.24h-8.94L99.496 25h-2.88l8.73-21.3zm4.98 12.96l-3.84-9.84-3.96 9.84h7.8zm7.309-12.96l6.45 11.1 6.51-11.1h2.94l-8.1 13.53V25h-2.7v-7.83l-8.07-13.47h2.97z" fill="#fff"/><path d="M135.854 25v-3.36h2.22V25h-2.22zm23.044-5.49c0 1.1-.28 2.06-.84 2.88-.56.82-1.32 1.46-2.28 1.92-.94.46-1.98.69-3.12.69h-10.11V3.7h10.59c1 0 1.86.27 2.58.81.74.52 1.3 1.2 1.68 2.04.4.82.6 1.68.6 2.58 0 1.04-.27 2.02-.81 2.94-.52.9-1.27 1.57-2.25 2.01 1.22.36 2.18 1.03 2.88 2.01.72.96 1.08 2.1 1.08 3.42zm-13.65-13.47v7.11h6.78c.94 0 1.72-.34 2.34-1.02.64-.7.96-1.54.96-2.52 0-1-.3-1.84-.9-2.52-.58-.7-1.32-1.05-2.22-1.05h-6.96zm10.92 12.99c0-.66-.15-1.27-.45-1.83-.28-.56-.67-1.01-1.17-1.35-.48-.34-1.04-.51-1.68-.51h-7.62v7.32h7.41c.66 0 1.25-.17 1.77-.51.54-.34.96-.78 1.26-1.32.32-.56.48-1.16.48-1.8zm6.507 5.97V3.7h2.7V25h-2.7zm6.203-2.1l13.74-16.8h-13.47V3.7h16.62v2.1l-13.5 16.8h13.5V25h-16.89v-2.1z" fill="#E8BB46"/><path d="M16 4.99v21m0-21s-7-6-14-1v22c7-5 14 0 14 0s7-5 14 0v-22c-7-5-14 1-14 1z" stroke="#fff" stroke-width="3"/></svg>