<svg width="31" height="30" fill="none" xmlns="http://www.w3.org/2000/svg"><circle cx="15.5" cy="15" r="14.5" stroke="#66938D"/><path fill-rule="evenodd" clip-rule="evenodd" d="M22.739 17.865c-.37-.185-2.183-1.072-2.522-1.195-.337-.123-.582-.184-.83.183-.246.367-.954 1.194-1.169 1.44-.215.245-.431.275-.8.091-.368-.183-1.557-.571-2.967-1.822-1.098-.974-1.838-2.176-2.054-2.545-.215-.368-.023-.566.163-.75.166-.163.369-.428.553-.643.184-.215.245-.367.369-.612.123-.246.062-.46-.032-.644-.092-.185-.83-1.993-1.138-2.728-.298-.712-.602-.617-.83-.627-.234-.01-.47-.014-.705-.013a1.364 1.364 0 00-.986.459C9.453 8.827 8.5 9.714 8.5 11.522c0 1.808 1.323 3.555 1.507 3.8.184.246 2.603 3.955 6.304 5.546.882.378 1.57.604 2.104.775.884.28 1.688.239 2.325.145.71-.105 2.183-.887 2.49-1.745.308-.858.308-1.593.216-1.747-.092-.154-.34-.247-.707-.43z" fill="#66938D"/></svg>