<svg width="30" height="30" fill="none" xmlns="http://www.w3.org/2000/svg"><path d="M25 8.93a8.22 8.22 0 01-2.36.635 4.089 4.089 0 001.802-2.26 8.091 8.091 0 01-2.6.99A4.088 4.088 0 0018.847 7a4.097 4.097 0 00-4.098 4.1c0 .318.038.635.1.94A11.648 11.648 0 016.4 7.75a4.07 4.07 0 00-.558 2.07 4.1 4.1 0 001.827 3.415 4.135 4.135 0 01-1.853-.522v.05A4.1 4.1 0 009.1 16.788a4.342 4.342 0 01-1.079.14c-.267 0-.519-.027-.774-.063a4.106 4.106 0 003.832 2.844A8.214 8.214 0 015.99 21.46a8.37 8.37 0 01-.99-.05 11.605 11.605 0 006.295 1.838c7.537 0 11.662-6.244 11.662-11.664 0-.178 0-.356-.012-.534A8.829 8.829 0 0025 8.93z" fill="#fff"/></svg>