<svg width="31" height="30" fill="none" xmlns="http://www.w3.org/2000/svg"><circle cx="15.5" cy="15" r="14.5" stroke="url(#paint0_linear)"/><path d="M15.498 10.895A4.099 4.099 0 0011.393 15a4.099 4.099 0 004.105 4.105A4.099 4.099 0 0019.602 15a4.099 4.099 0 00-4.104-4.105zm0 6.773A2.673 2.673 0 0112.83 15a2.673 2.673 0 012.668-2.668A2.673 2.673 0 0118.166 15a2.673 2.673 0 01-2.668 2.668zM19.77 9.77a.958.958 0 100 1.918.956.956 0 00.886-1.326.957.957 0 00-.886-.592zM23.499 15c0-1.105.01-2.2-.052-3.302-.062-1.281-.354-2.418-1.29-3.354-.94-.94-2.074-1.23-3.355-1.291C17.697 6.99 16.602 7 15.5 7c-1.105 0-2.2-.01-3.302.052-1.281.062-2.418.354-3.355 1.29-.938.94-1.228 2.074-1.29 3.355C7.49 12.802 7.5 13.898 7.5 15c0 1.103-.01 2.2.052 3.302.062 1.281.354 2.418 1.29 3.355.94.938 2.074 1.228 3.355 1.29 1.104.062 2.2.052 3.302.052 1.105 0 2.2.01 3.302-.052 1.28-.062 2.418-.354 3.354-1.29.939-.94 1.229-2.074 1.291-3.355.064-1.102.052-2.197.052-3.302zm-1.761 4.72a2.545 2.545 0 01-.604.916 2.56 2.56 0 01-.917.604c-1.053.419-3.552.324-4.72.324-1.166 0-3.668.095-4.72-.322a2.543 2.543 0 01-.917-.604 2.56 2.56 0 01-.604-.917c-.417-1.055-.322-3.554-.322-4.721 0-1.167-.095-3.668.322-4.721.146-.364.322-.637.604-.917s.553-.458.917-.604c1.052-.416 3.554-.322 4.72-.322 1.168 0 3.67-.095 4.722.322.364.146.636.322.917.604.282.282.458.553.604.917.416 1.053.322 3.554.322 4.721 0 1.167.094 3.666-.324 4.72z" fill="url(#paint1_linear)"/><defs><linearGradient id="paint0_linear" x1="15.5" y1="0" x2="15.5" y2="30" gradientUnits="userSpaceOnUse"><stop stop-color="#625ACA"/><stop offset="1" stop-color="#E53F60"/></linearGradient><linearGradient id="paint1_linear" x1="15.5" y1="7" x2="15.5" y2="23" gradientUnits="userSpaceOnUse"><stop stop-color="#625ACA"/><stop offset="1" stop-color="#E53F60"/></linearGradient></defs></svg>