<svg width="28" height="27" fill="none" xmlns="http://www.w3.org/2000/svg"><path d="M14.021 0A13.443 13.443 0 002.665 6.178a.25.25 0 00.21.385H5.07c.15 0 .29-.066.385-.182.218-.265.453-.522.7-.765a11.058 11.058 0 017.83-3.24c1.498-.001 2.948.29 4.31.868a11.057 11.057 0 013.522 2.372 11.04 11.04 0 012.375 3.515c.578 1.363.869 2.81.869 4.306a11.01 11.01 0 01-3.244 7.822 11.058 11.058 0 01-7.831 3.241 11.058 11.058 0 01-7.831-3.24 12.381 12.381 0 01-.7-.766.497.497 0 00-.385-.181H2.874a.249.249 0 00-.209.384 13.447 13.447 0 0011.322 6.178c7.381 0 13.375-5.94 13.45-13.3A13.422 13.422 0 0014.02 0zm-3.959 16.938v-2.375H.25a.25.25 0 01-.25-.25v-1.75a.25.25 0 01.25-.25h9.813V9.938a.25.25 0 01.406-.197l4.434 3.5a.25.25 0 010 .393l-4.434 3.5a.252.252 0 01-.406-.197z" fill="#fff"/></svg>