<svg width="24" height="24" viewBox="0 0 24 24" fill="none" xmlns="http://www.w3.org/2000/svg">
<path d="M10.5471 18.4568C12.6449 18.4568 14.6568 17.6235 16.1401 16.1401C17.6235 14.6567 18.4569 12.6449 18.4569 10.547C18.4569 8.44924 17.6235 6.43736 16.1401 4.95398C14.6568 3.47061 12.6449 2.63726 10.5471 2.63726C8.44925 2.63726 6.43736 3.47061 4.95399 4.95398C3.47061 6.43736 2.63726 8.44924 2.63726 10.547C2.63726 12.6449 3.47061 14.6567 4.95399 16.1401C6.43736 17.6235 8.44925 18.4568 10.5471 18.4568ZM18.8787 17.0146L23.5982 21.7341C23.724 21.8558 23.8244 22.0014 23.8933 22.1623C23.9623 22.3231 23.9986 22.4961 24 22.6712C24.0014 22.8462 23.9679 23.0198 23.9015 23.1818C23.8351 23.3437 23.7371 23.4908 23.6132 23.6145C23.4894 23.7382 23.3421 23.836 23.18 23.9022C23.018 23.9684 22.8444 24.0016 22.6693 23.9999C22.4943 23.9983 22.3213 23.9618 22.1605 23.8926C21.9997 23.8234 21.8544 23.7229 21.7328 23.5969L17.0133 18.8774C14.8941 20.5224 12.2276 21.298 9.55669 21.0462C6.88576 20.7945 4.41117 19.5343 2.63667 17.5222C0.862167 15.5102 -0.0788502 12.8975 0.00517962 10.2161C0.0892094 7.53461 1.19197 4.98597 3.08897 3.08897C4.98597 1.19197 7.53462 0.0892093 10.2161 0.00517962C12.8975 -0.0788501 15.5102 0.862167 17.5223 2.63667C19.5343 4.41117 20.7945 6.88576 21.0463 9.55668C21.298 12.2276 20.5224 14.8941 18.8774 17.0133L18.8787 17.0146Z" fill="#E8BB46"/>
</svg>
