<svg width="31" height="30" fill="none" xmlns="http://www.w3.org/2000/svg"><circle cx="15.5" cy="15" r="14.5" stroke="#55ACEE"/><path d="M21.59 12.233v.381a8.744 8.744 0 01-.561 3.07 9.436 9.436 0 01-1.596 2.756 7.711 7.711 0 01-2.682 2.03 8.345 8.345 0 01-3.617.78 8.15 8.15 0 01-4.55-1.353c.226.023.463.035.713.035a5.825 5.825 0 003.701-1.283 2.957 2.957 0 01-1.749-.625 2.898 2.898 0 01-1.036-1.49 2.228 2.228 0 001.324-.07 2.88 2.88 0 01-1.697-1.04 2.93 2.93 0 01-.68-1.908v-.035c.42.229.884.359 1.36.382a2.905 2.905 0 01-.988-1.089 2.978 2.978 0 01-.337-1.443 2.958 2.958 0 01.407-1.526 8.57 8.57 0 002.7 2.22 8.229 8.229 0 003.413.936 3.579 3.579 0 01-.068-.693c0-.8.312-1.568.866-2.133A2.925 2.925 0 0118.6 9.25c.407-.009.81.07 1.184.232a2.9 2.9 0 01.99.704 6.146 6.146 0 001.901-.728 2.903 2.903 0 01-1.324 1.664 6.17 6.17 0 001.732-.45 6.45 6.45 0 01-1.494 1.56z" fill="#55ACEE"/></svg>