<svg width="31" height="30" fill="none" xmlns="http://www.w3.org/2000/svg"><circle cx="15.5" cy="15" r="14.5" stroke="#44EA62"/><path fill-rule="evenodd" clip-rule="evenodd" d="M21.169 9.325A7.948 7.948 0 0015.534 7c-4.391 0-7.966 3.557-7.967 7.928 0 1.398.366 2.761 1.063 3.964L7.5 23l4.223-1.103a8 8 0 003.807.965h.004c4.39 0 7.964-3.556 7.966-7.928a7.852 7.852 0 00-2.331-5.609zm-5.635 12.2h-.003a6.632 6.632 0 01-3.37-.92l-.242-.143-2.506.654.668-2.431-.157-.25a6.555 6.555 0 01-1.012-3.506c.002-3.634 2.972-6.59 6.624-6.59a6.606 6.606 0 014.681 1.932 6.55 6.55 0 011.938 4.663c-.002 3.633-2.972 6.59-6.621 6.59zm3.632-4.937c-.2-.1-1.178-.579-1.36-.645-.182-.066-.315-.099-.448.1-.133.197-.515.643-.63.776-.117.132-.233.148-.432.049-.199-.099-.84-.308-1.6-.983a5.974 5.974 0 01-1.108-1.373c-.117-.198-.013-.305.088-.404.09-.088.198-.231.298-.347.099-.116.132-.198.198-.33.067-.133.034-.249-.016-.347-.05-.1-.449-1.075-.615-1.472-.16-.384-.324-.333-.447-.338a8.627 8.627 0 00-.38-.007.738.738 0 00-.532.247c-.183.199-.697.678-.697 1.652 0 .976.714 1.918.813 2.05.1.133 1.404 2.133 3.4 2.992.476.204.847.326 1.136.418.476.15.91.128 1.254.078.382-.056 1.177-.479 1.343-.941.166-.463.166-.86.116-.943-.05-.083-.183-.133-.381-.232z" fill="#44EA62"/></svg>